{"glyphs":{"0":{"ha":879,"x_min":65,"x_max":814,"o":"m 439 919 q 169 804 268 919 q 65 450 65 683 q 169 96 65 217 q 440 -19 268 -19 q 708 96 611 -19 q 814 450 814 219 q 708 804 814 681 q 591 891 660 863 q 439 919 522 919 m 644 450 q 591 213 644 294 q 440 132 538 132 q 288 213 342 132 q 235 450 235 294 q 288 688 235 606 q 440 771 342 771 q 591 688 538 771 q 644 450 644 606 "},"1":{"ha":496,"x_min":58,"x_max":365,"o":"m 58 833 l 58 676 q 201 711 131 676 l 201 0 l 365 0 l 365 907 l 242 907 q 58 833 163 849 "},"2":{"ha":840,"x_min":83,"x_max":768,"o":"m 247 150 l 247 176 q 272 242 247 217 q 350 289 296 268 l 538 361 q 712 474 656 407 q 768 654 768 542 q 675 844 768 767 q 443 919 583 919 q 200 851 290 919 q 99 644 101 776 l 281 644 q 333 743 288 710 q 447 776 378 776 q 554 741 517 776 q 592 653 592 706 q 563 565 592 600 q 474 506 535 529 l 289 435 q 199 390 238 415 q 83 154 83 317 l 83 0 l 763 0 l 763 150 l 247 150 "},"3":{"ha":864,"x_min":61,"x_max":793,"o":"m 429 771 q 547 736 508 771 q 585 646 585 701 q 540 556 585 590 q 417 522 496 522 l 314 522 l 314 393 l 433 393 q 572 360 528 393 q 615 267 615 326 q 567 170 615 208 q 433 132 519 132 q 294 172 347 132 q 236 283 240 213 l 61 283 q 178 58 61 143 q 435 -19 282 -19 q 694 57 594 -19 q 767 143 742 93 q 793 264 793 193 q 744 390 793 335 q 613 472 694 444 q 724 548 686 497 q 761 668 761 599 q 664 850 761 779 q 422 919 571 919 q 189 857 278 919 q 81 656 94 789 l 253 656 q 429 771 278 771 "},"4":{"ha":826,"x_min":31,"x_max":807,"o":"m 650 911 l 492 911 l 31 324 l 31 200 l 488 200 l 488 0 l 650 0 l 650 200 l 807 200 l 807 340 l 650 340 l 650 911 m 225 324 l 496 668 l 496 324 l 225 324 "},"5":{"ha":808,"x_min":79,"x_max":754,"o":"m 304 549 l 324 751 l 706 751 l 706 901 l 165 901 l 124 438 l 399 438 q 585 300 585 438 q 537 180 585 228 q 415 132 489 132 q 294 165 342 132 q 247 269 247 199 l 79 269 q 175 56 82 133 q 413 -19 264 -19 q 661 74 563 -19 q 754 300 754 163 q 671 494 754 426 q 447 561 588 561 q 304 549 379 561 "},"6":{"ha":843,"x_min":65,"x_max":775,"o":"m 590 654 l 765 654 q 675 847 760 774 q 456 919 592 919 q 172 794 276 919 q 65 435 65 665 q 172 108 65 236 q 449 -19 279 -19 q 685 60 594 -19 q 775 267 775 139 q 694 472 775 394 q 488 553 613 553 q 325 506 390 553 q 235 331 250 450 q 231 421 231 361 q 292 676 231 582 q 365 747 322 722 q 463 771 407 771 q 551 740 519 771 q 590 654 583 708 m 449 418 q 558 381 515 418 q 606 274 606 339 q 560 170 606 208 q 448 132 514 132 q 337 170 382 132 q 292 274 292 208 q 337 378 292 339 q 415 418 382 418 q 449 418 449 418 "},"7":{"ha":692,"x_min":33,"x_max":667,"o":"m 667 901 l 33 901 l 33 743 l 474 743 l 61 0 l 282 0 l 667 744 l 667 901 "},"8":{"ha":899,"x_min":68,"x_max":831,"o":"m 438 919 q 190 853 281 919 q 99 674 99 788 q 114 594 99 629 q 278 443 157 501 q 127 380 186 432 q 68 243 68 328 q 172 56 68 128 q 449 -19 278 -19 q 731 53 626 -19 q 831 239 831 124 q 778 378 831 322 q 618 471 733 425 q 752 540 706 486 q 799 661 799 593 q 697 847 799 774 q 517 919 596 919 q 438 919 438 919 m 421 386 l 565 332 q 635 290 610 314 q 661 226 661 265 q 609 159 661 186 q 456 132 557 132 q 300 165 356 132 q 254 206 271 182 q 238 257 238 229 q 250 306 238 285 q 421 386 294 378 m 360 571 q 268 660 268 608 q 319 742 268 713 q 449 771 371 771 q 579 738 529 771 q 629 651 629 706 q 581 564 629 597 q 464 531 531 531 l 360 571 "},"9":{"ha":847,"x_min":74,"x_max":783,"o":"m 407 132 q 299 168 342 132 q 254 267 257 204 l 83 267 q 178 60 83 139 q 283 1 222 22 q 424 -19 343 -19 q 575 14 506 -19 q 783 465 783 117 q 672 794 783 667 q 399 919 563 919 q 164 840 254 919 q 74 633 74 761 q 153 428 74 508 q 360 349 233 349 q 522 397 458 349 q 613 561 594 453 q 618 479 618 517 q 407 132 618 132 m 400 769 q 511 731 467 769 q 557 626 557 690 q 511 522 557 564 q 400 483 465 483 q 288 521 333 483 q 243 626 243 558 q 288 731 243 693 q 367 769 333 769 q 400 769 400 769 "}," ":{"ha":351,"x_min":0,"x_max":0,"o":""},"!":{"ha":407,"x_min":94,"x_max":325,"o":"m 119 922 l 138 304 l 278 304 l 297 922 l 119 922 m 208 -12 q 292 18 258 -12 q 325 96 325 49 q 292 175 325 143 q 208 207 258 207 q 126 175 158 207 q 94 96 94 143 q 126 18 94 49 q 208 -12 158 -12 "},"\"":{"ha":532,"x_min":44,"x_max":488,"o":"m 208 953 l 44 953 l 65 622 l 186 622 l 208 953 m 488 953 l 324 953 l 344 622 l 465 622 l 488 953 "},"#":{"ha":942,"x_min":79,"x_max":881,"o":"m 550 228 l 531 46 l 685 46 l 704 228 l 835 228 l 846 335 l 715 335 l 739 554 l 868 554 l 881 663 l 750 663 l 769 842 l 615 842 l 596 663 l 407 663 l 426 842 l 272 842 l 253 663 l 124 663 l 113 554 l 242 554 l 218 335 l 89 335 l 79 228 l 207 228 l 188 46 l 342 46 l 361 228 l 550 228 m 372 335 l 396 554 l 585 554 l 561 335 l 372 335 "},"$":{"ha":957,"x_min":90,"x_max":867,"o":"m 660 476 l 538 519 l 538 772 q 630 727 596 760 q 671 653 664 694 l 833 653 q 743 833 814 764 q 538 917 672 903 l 538 1024 l 421 1024 l 421 918 q 187 841 267 907 q 107 676 107 775 q 171 523 107 578 q 351 429 235 468 l 421 406 l 421 136 q 296 181 339 146 q 253 282 253 215 l 90 282 q 186 71 90 149 q 421 -15 276 -1 l 421 -140 l 538 -140 l 538 -18 q 786 69 697 -7 q 867 240 867 142 q 815 385 867 331 q 660 476 764 440 m 538 133 l 538 376 l 582 360 q 682 243 682 322 q 647 171 682 201 q 538 133 613 140 m 421 776 l 421 553 l 379 569 q 308 609 331 586 q 286 671 286 632 q 320 739 286 710 q 421 776 354 768 "},"%":{"ha":1063,"x_min":85,"x_max":986,"o":"m 275 919 q 142 867 196 919 q 85 710 85 813 q 142 551 85 608 q 274 499 194 499 q 408 551 356 499 q 465 710 465 608 q 408 867 465 813 q 347 906 382 893 q 275 919 313 919 m 342 710 q 274 603 342 603 q 207 710 207 603 q 274 815 207 815 q 342 710 342 815 m 758 901 l 147 0 l 314 0 l 924 901 l 758 901 m 796 403 q 663 350 717 403 q 606 193 606 296 q 663 33 606 90 q 796 -19 715 -19 q 929 33 876 -19 q 986 193 986 90 q 929 350 986 296 q 796 403 875 403 m 796 299 q 844 274 825 299 q 864 192 864 250 q 844 110 864 135 q 796 86 825 86 q 729 192 729 86 q 796 299 729 299 "},"&":{"ha":1340,"x_min":128,"x_max":1265,"o":"m 1061 478 l 950 539 q 804 285 889 386 l 628 444 q 803 551 746 489 q 861 703 861 613 q 783 853 861 793 q 564 917 699 917 q 339 853 424 917 q 260 697 260 793 q 360 499 260 589 l 382 478 q 128 257 128 438 q 236 60 128 140 q 500 -19 344 -19 q 808 90 669 -19 q 927 7 871 33 q 1050 -19 983 -19 q 1209 47 1156 -19 q 1265 228 1263 114 l 1117 228 q 1090 149 1114 174 q 1034 125 1067 125 q 979 136 1001 125 q 932 169 957 147 l 908 190 q 1061 478 1000 304 m 475 394 l 700 190 q 501 129 607 129 q 359 169 410 129 q 308 267 308 208 q 475 394 308 371 m 538 526 l 506 556 q 440 674 440 613 q 472 745 440 715 q 560 775 503 775 q 649 748 617 775 q 681 676 681 721 q 647 594 681 631 q 538 526 613 558 "},"'":{"ha":250,"x_min":43,"x_max":207,"o":"m 207 940 l 43 940 l 64 610 l 185 610 l 207 940 "},"(":{"ha":556,"x_min":101,"x_max":510,"o":"m 392 -164 l 510 -75 q 331 174 390 50 q 271 442 271 299 q 331 710 271 585 q 510 961 390 836 l 392 1047 q 101 442 101 792 q 392 -164 101 94 "},")":{"ha":556,"x_min":44,"x_max":454,"o":"m 164 1047 l 44 961 q 224 710 164 836 q 285 442 285 585 q 225 174 285 299 q 44 -75 165 50 l 164 -164 q 454 442 454 97 q 164 1047 454 789 "},"*":{"ha":568,"x_min":69,"x_max":506,"o":"m 224 733 l 104 621 l 183 550 l 289 690 l 392 550 l 474 621 l 354 735 l 506 786 l 464 885 l 326 813 l 343 978 l 232 978 l 249 813 l 111 882 l 69 785 l 224 733 "},"+":{"ha":756,"x_min":25,"x_max":731,"o":"m 460 682 l 296 682 l 296 413 l 25 413 l 25 269 l 296 269 l 296 0 l 460 0 l 460 269 l 731 269 l 731 413 l 460 413 l 460 682 "},",":{"ha":351,"x_min":33,"x_max":313,"o":"m 161 -7 q 115 -75 150 -46 q 33 -128 79 -104 l 156 -189 q 221 -144 192 -171 q 313 40 313 -61 q 278 146 313 103 q 188 189 243 189 q 100 160 132 189 q 68 90 68 131 q 95 24 68 49 q 161 -7 122 0 "},"-":{"ha":518,"x_min":64,"x_max":454,"o":"m 64 490 l 64 347 l 454 347 l 454 490 l 64 490 "},".":{"ha":299,"x_min":33,"x_max":264,"o":"m 147 -12 q 231 18 197 -12 q 264 96 264 49 q 231 175 264 143 q 147 207 197 207 q 65 175 97 207 q 33 96 33 143 q 65 18 33 49 q 147 -12 97 -12 "},"/":{"ha":656,"x_min":74,"x_max":599,"o":"m 431 1035 l 74 -112 l 240 -112 l 599 1035 l 431 1035 "},":":{"ha":375,"x_min":71,"x_max":301,"o":"m 185 11 q 268 42 235 11 q 301 119 301 72 q 268 199 301 167 q 185 231 235 231 q 103 199 135 231 q 71 119 71 167 q 103 42 71 72 q 185 11 135 11 m 185 424 q 268 454 235 424 q 301 532 301 485 q 268 611 301 579 q 185 643 235 643 q 103 611 135 643 q 71 532 71 579 q 103 454 71 485 q 185 424 135 424 "},";":{"ha":428,"x_min":75,"x_max":354,"o":"m 203 -7 q 156 -75 192 -46 q 75 -128 121 -104 l 197 -189 q 263 -144 233 -171 q 354 40 354 -61 q 319 146 354 103 q 229 189 285 189 q 142 160 174 189 q 110 90 110 131 q 137 24 110 49 q 203 -7 164 0 m 232 424 q 315 454 282 424 q 349 532 349 485 q 315 611 349 579 q 232 643 282 643 q 150 611 182 643 q 118 532 118 579 q 150 454 118 485 q 232 424 182 424 "},"<":{"ha":697,"x_min":63,"x_max":635,"o":"m 635 732 l 526 857 l 63 522 l 63 374 l 526 39 l 635 164 l 231 447 l 635 732 "},"=":{"ha":703,"x_min":110,"x_max":593,"o":"m 593 275 l 110 275 l 110 132 l 593 132 l 593 275 m 593 567 l 110 567 l 110 425 l 593 425 l 593 567 "},">":{"ha":697,"x_min":63,"x_max":635,"o":"m 171 857 l 63 732 l 465 447 l 63 164 l 171 39 l 635 374 l 635 522 l 171 857 "},"?":{"ha":718,"x_min":33,"x_max":674,"o":"m 674 668 q 587 847 674 775 q 352 919 500 919 q 122 847 204 919 q 33 653 40 774 l 204 653 q 249 738 210 706 q 356 771 288 771 q 458 742 424 771 q 493 672 493 714 q 470 602 493 629 q 396 549 447 575 q 318 503 344 522 q 243 325 243 450 l 243 269 l 407 269 l 407 310 q 413 356 407 336 q 438 400 418 376 q 524 457 458 424 q 638 545 601 496 q 674 668 674 594 m 215 90 q 247 12 215 43 q 328 -19 278 -19 q 413 12 379 -19 q 446 90 446 43 q 413 168 446 138 q 328 199 379 199 q 247 168 278 199 q 215 90 215 138 "},"@":{"ha":1426,"x_min":93,"x_max":1356,"o":"m 846 389 l 846 250 q 785 169 818 196 q 704 142 753 142 q 623 174 656 142 q 590 269 590 207 q 651 428 590 361 q 710 470 678 456 q 778 485 742 485 q 830 458 814 485 q 846 389 846 432 m 978 208 l 978 390 q 923 556 978 501 q 776 611 868 611 q 542 511 639 611 q 442 267 442 410 q 513 81 442 157 q 585 28 544 47 q 685 8 626 8 q 783 40 743 8 q 850 124 822 71 l 858 101 q 913 33 871 57 q 1019 8 954 8 q 1144 35 1083 8 q 1251 112 1204 61 q 1326 237 1297 163 q 1356 413 1356 311 q 1314 608 1356 514 q 1197 771 1272 701 q 1014 880 1121 840 q 769 919 907 919 q 505 874 631 919 q 288 747 379 829 q 144 548 196 664 q 93 299 93 432 q 142 58 93 167 q 283 -130 192 -50 q 503 -256 375 -210 q 790 -303 632 -303 l 790 -168 q 396 -42 540 -168 q 258 281 258 76 q 403 631 258 492 q 778 772 549 772 q 1083 667 968 772 q 1190 407 1190 568 q 1131 200 1190 278 q 1077 152 1106 167 q 1026 138 1049 138 q 978 208 978 138 "},"A":{"ha":869,"x_min":31,"x_max":839,"o":"m 338 901 l 31 0 l 204 0 l 268 194 l 603 194 l 665 0 l 839 0 l 543 901 l 338 901 m 310 318 l 438 706 l 563 318 l 310 318 "},"B":{"ha":900,"x_min":129,"x_max":818,"o":"m 129 901 l 129 0 l 494 0 q 653 22 590 0 q 818 250 818 83 q 768 387 818 333 q 642 456 718 440 q 760 532 718 478 q 803 663 803 586 q 725 831 803 765 q 493 901 643 901 l 129 901 m 490 143 l 293 143 l 293 378 l 490 378 q 603 345 567 378 q 640 260 640 313 q 605 175 640 207 q 490 143 569 143 m 293 521 l 293 760 l 488 760 q 598 727 561 760 q 635 640 635 694 q 597 553 635 585 q 486 521 560 521 l 293 521 "},"C":{"ha":881,"x_min":65,"x_max":818,"o":"m 453 919 q 175 800 281 919 q 65 453 65 675 q 172 106 65 233 q 457 -19 278 -19 q 722 63 625 -19 q 818 297 818 146 l 642 297 q 593 177 642 224 q 449 131 544 131 q 297 216 353 131 q 242 453 242 301 q 304 692 242 606 q 457 771 363 771 q 573 727 526 771 q 642 613 619 683 l 817 644 q 703 843 790 772 q 597 899 658 879 q 453 919 536 919 "},"D":{"ha":953,"x_min":128,"x_max":881,"o":"m 421 901 l 128 901 l 128 0 l 421 0 q 753 122 626 0 q 881 450 881 244 q 753 779 881 657 q 421 901 626 901 m 293 149 l 293 753 l 421 753 q 628 668 550 753 q 703 450 703 585 q 628 235 703 318 q 421 149 549 149 l 293 149 "},"E":{"ha":814,"x_min":128,"x_max":708,"o":"m 128 901 l 128 0 l 708 0 l 708 143 l 292 143 l 292 381 l 682 381 l 682 522 l 292 522 l 292 760 l 708 760 l 708 901 l 128 901 "},"F":{"ha":760,"x_min":129,"x_max":697,"o":"m 129 901 l 129 0 l 293 0 l 293 382 l 663 382 l 663 522 l 293 522 l 293 760 l 697 760 l 697 901 l 129 901 "},"G":{"ha":940,"x_min":65,"x_max":838,"o":"m 682 143 l 700 0 l 833 0 l 833 464 l 474 464 l 474 358 l 676 354 l 676 349 q 618 189 676 247 q 472 132 561 132 q 306 218 368 132 q 242 446 242 306 q 313 683 242 594 q 483 771 381 771 q 669 653 596 771 l 838 692 q 703 865 789 810 q 492 919 618 919 q 188 793 306 919 q 65 446 65 663 q 179 108 65 240 q 458 -19 289 -19 q 682 143 624 -19 "},"H":{"ha":981,"x_min":129,"x_max":850,"o":"m 293 901 l 129 901 l 129 0 l 293 0 l 293 382 l 686 382 l 686 0 l 850 0 l 850 901 l 686 901 l 686 525 l 293 525 l 293 901 "},"I":{"ha":422,"x_min":129,"x_max":293,"o":"m 129 901 l 129 0 l 293 0 l 293 901 l 129 901 "},"J":{"ha":617,"x_min":22,"x_max":508,"o":"m 22 38 q 250 -19 133 -19 q 433 49 367 -19 q 508 281 508 125 l 508 901 l 343 901 l 343 281 q 316 175 343 210 q 229 140 289 140 q 22 201 129 140 l 22 38 "},"K":{"ha":908,"x_min":129,"x_max":901,"o":"m 294 901 l 129 901 l 129 0 l 294 0 l 294 307 l 368 382 l 689 0 l 901 0 l 478 496 l 875 901 l 650 901 l 294 531 l 294 901 "},"L":{"ha":686,"x_min":129,"x_max":664,"o":"m 293 143 l 293 901 l 129 901 l 129 0 l 664 0 l 664 143 l 293 143 "},"M":{"ha":1214,"x_min":129,"x_max":1085,"o":"m 364 901 l 129 901 l 129 0 l 293 0 l 293 704 l 557 99 l 664 99 l 919 685 l 919 0 l 1085 0 l 1085 901 l 858 901 l 611 365 l 364 901 "},"N":{"ha":996,"x_min":126,"x_max":867,"o":"m 306 901 l 126 901 l 126 0 l 290 0 l 290 661 l 700 0 l 867 0 l 867 901 l 703 901 l 703 263 l 306 901 "},"O":{"ha":949,"x_min":65,"x_max":883,"o":"m 475 919 q 179 804 286 919 q 65 451 65 682 q 179 100 65 224 q 474 -19 288 -19 q 769 97 661 -19 q 883 451 883 222 q 769 801 883 679 q 640 890 715 860 q 475 919 565 919 m 714 449 q 649 212 714 294 q 475 129 585 129 q 300 212 365 129 q 235 449 235 294 q 300 688 235 604 q 475 772 365 772 q 649 688 585 772 q 714 527 714 604 q 714 449 714 449 "},"P":{"ha":807,"x_min":125,"x_max":767,"o":"m 443 901 l 125 901 l 125 0 l 290 0 l 290 328 l 443 328 q 681 402 596 328 q 767 615 767 476 q 681 827 767 753 q 443 901 596 901 m 443 471 l 290 471 l 290 760 l 443 760 q 558 719 519 760 q 597 615 597 678 q 558 511 597 551 q 443 471 519 471 "},"Q":{"ha":953,"x_min":65,"x_max":883,"o":"m 872 -225 l 872 -56 q 738 -87 797 -87 q 639 -33 672 -85 l 617 1 q 811 152 739 40 q 883 451 883 264 q 769 801 883 679 q 474 919 660 919 q 179 804 286 919 q 65 451 65 682 q 175 103 65 229 q 461 -19 282 -17 l 521 -110 q 749 -250 614 -250 q 872 -225 815 -250 m 714 449 q 649 212 714 294 q 475 129 585 129 q 300 212 365 129 q 235 449 235 294 q 300 688 235 604 q 475 772 365 772 q 649 688 585 772 q 714 527 714 604 q 714 449 714 449 "},"R":{"ha":894,"x_min":129,"x_max":831,"o":"m 799 625 q 711 825 799 751 q 463 901 622 901 l 129 901 l 129 0 l 293 0 l 293 351 l 418 351 l 617 0 l 831 0 l 589 367 q 744 461 690 393 q 799 625 799 529 m 447 461 l 293 461 l 293 760 l 463 760 q 588 719 546 760 q 629 610 629 678 q 583 502 629 543 q 447 461 538 461 "},"S":{"ha":886,"x_min":90,"x_max":796,"o":"m 603 653 l 765 653 q 670 849 753 779 q 435 919 588 919 q 194 851 283 919 q 107 674 107 786 q 163 524 107 578 q 322 429 218 469 l 501 358 q 588 310 561 336 q 614 237 614 285 q 565 160 614 189 q 460 132 517 132 q 368 142 403 132 q 253 282 253 171 l 90 282 q 200 54 96 135 q 443 -19 293 -19 q 704 52 613 -19 q 796 246 796 124 q 742 394 796 335 q 588 492 688 453 l 392 568 q 312 610 338 588 q 286 674 286 633 q 326 742 286 714 q 436 771 365 771 q 603 653 581 771 "},"T":{"ha":739,"x_min":8,"x_max":731,"o":"m 8 901 l 8 760 l 288 760 l 288 0 l 451 0 l 451 760 l 731 760 l 731 901 l 8 901 "},"U":{"ha":958,"x_min":115,"x_max":846,"o":"m 279 901 l 115 901 l 115 340 q 211 74 115 168 q 481 -19 307 -19 q 750 74 654 -19 q 846 340 846 168 l 846 901 l 682 901 l 682 340 q 626 181 682 229 q 481 132 569 132 q 335 181 392 132 q 279 340 279 229 l 279 901 "},"V":{"ha":843,"x_min":28,"x_max":815,"o":"m 201 901 l 28 901 l 333 0 l 506 0 l 815 901 l 643 901 l 421 206 l 201 901 "},"W":{"ha":1342,"x_min":28,"x_max":1314,"o":"m 211 901 l 28 901 l 322 0 l 494 0 l 663 508 l 832 0 l 1004 0 l 1314 901 l 1129 901 l 918 214 l 714 842 l 603 842 l 410 217 l 211 901 "},"X":{"ha":950,"x_min":46,"x_max":901,"o":"m 901 0 l 567 451 l 871 901 l 672 901 l 475 576 l 247 901 l 46 901 l 365 449 l 47 0 l 247 0 l 458 319 l 696 0 l 901 0 "},"Y":{"ha":839,"x_min":22,"x_max":817,"o":"m 217 901 l 22 901 l 332 372 l 332 0 l 496 0 l 496 372 l 817 901 l 624 901 l 415 542 l 217 901 "},"Z":{"ha":874,"x_min":101,"x_max":783,"o":"m 101 142 l 101 0 l 783 0 l 783 150 l 308 151 l 783 761 l 783 901 l 101 901 l 101 751 l 578 750 l 101 142 "},"[":{"ha":489,"x_min":129,"x_max":472,"o":"m 129 1097 l 129 -196 l 472 -196 l 472 -47 l 293 -47 l 293 950 l 472 950 l 472 1097 l 129 1097 "},"\\":{"ha":656,"x_min":57,"x_max":582,"o":"m 57 1036 l 414 -111 l 582 -111 l 224 1036 l 57 1036 "},"]":{"ha":467,"x_min":-6,"x_max":338,"o":"m 338 -196 l 338 1097 l -6 1097 l -6 950 l 174 950 l 174 -47 l -6 -47 l -6 -196 l 338 -196 "},"^":{"ha":732,"x_min":28,"x_max":710,"o":"m 28 303 l 208 303 l 369 644 l 529 303 l 710 303 l 436 838 l 303 838 l 28 303 "},"_":{"ha":1067,"x_min":76,"x_max":992,"o":"m 76 -76 l 76 -219 l 992 -219 l 992 -76 l 76 -76 "},"`":{"ha":494,"x_min":33,"x_max":463,"o":"m 92 1250 l 33 1108 l 421 964 l 463 1067 l 92 1250 "},"a":{"ha":811,"x_min":76,"x_max":701,"o":"m 351 394 q 150 344 224 394 q 76 199 76 293 q 143 44 76 106 q 346 -19 215 -19 q 546 90 481 -19 l 558 0 l 701 0 l 701 429 q 681 547 701 497 q 411 693 619 693 q 184 642 265 693 q 103 475 103 590 l 282 475 q 317 548 282 522 q 416 574 351 574 q 509 540 481 574 q 538 435 538 506 l 538 368 q 351 394 432 394 m 538 264 q 491 151 535 196 q 380 106 447 106 q 282 133 313 106 q 251 197 251 160 q 385 286 251 286 q 538 264 456 286 "},"b":{"ha":853,"x_min":129,"x_max":782,"o":"m 697 596 q 484 693 611 693 q 293 590 357 693 l 293 953 l 129 953 l 129 0 l 236 0 l 276 117 q 359 14 307 47 q 474 -19 411 -19 q 692 79 604 -19 q 782 340 782 182 q 739 547 782 499 q 697 596 697 596 m 293 379 q 339 500 293 454 q 454 546 385 546 q 570 490 524 546 q 617 339 617 433 q 569 187 617 244 q 456 129 522 129 q 344 174 390 129 q 293 290 296 219 l 293 379 "},"c":{"ha":736,"x_min":65,"x_max":668,"o":"m 386 693 q 161 600 251 693 q 65 338 65 501 q 161 78 65 182 q 385 -19 251 -19 q 594 56 519 -19 q 668 240 668 129 l 503 240 q 474 159 503 189 q 383 129 446 129 q 275 181 319 129 q 231 336 231 233 q 278 497 231 439 q 326 534 299 522 q 393 546 354 546 q 462 517 432 546 q 503 443 492 488 l 668 447 q 586 615 656 549 q 501 672 551 650 q 386 693 450 693 "},"d":{"ha":853,"x_min":71,"x_max":724,"o":"m 569 104 l 589 0 l 724 0 l 724 953 l 558 953 l 558 592 q 368 693 494 693 q 157 597 242 693 q 71 340 71 499 q 161 79 71 182 q 378 -19 249 -19 q 569 104 507 -19 m 399 546 q 510 504 468 546 q 558 386 556 458 l 558 299 q 510 176 558 225 q 403 129 463 129 q 283 187 331 129 q 236 339 236 244 q 283 490 236 433 q 364 546 329 546 q 399 546 399 546 "},"e":{"ha":736,"x_min":65,"x_max":669,"o":"m 600 594 q 382 693 522 693 q 158 599 247 693 q 65 338 65 500 q 158 78 65 179 q 382 -19 249 -19 q 575 42 496 -19 q 668 201 651 100 l 503 201 q 382 113 483 113 q 268 164 306 113 q 228 297 231 215 l 664 297 q 669 385 669 336 q 652 492 669 433 q 600 594 635 550 m 383 563 q 447 549 421 563 q 517 401 517 511 l 229 401 q 275 517 236 472 q 383 563 314 563 "},"f":{"ha":508,"x_min":56,"x_max":501,"o":"m 56 675 l 56 565 l 156 565 l 156 0 l 321 0 l 321 565 l 444 565 l 444 675 l 321 675 l 321 753 q 344 817 321 800 q 399 835 368 835 q 469 821 431 835 l 501 947 q 361 964 418 964 q 217 914 272 964 q 156 754 156 858 l 156 675 l 56 675 "},"g":{"ha":808,"x_min":21,"x_max":781,"o":"m 188 276 q 108 230 139 263 q 78 149 78 197 q 160 25 78 75 q 59 -22 97 15 q 21 -121 21 -58 q 118 -281 21 -215 q 389 -349 222 -349 q 675 -260 561 -349 q 753 -167 726 -219 q 781 -61 781 -115 q 550 100 781 100 l 324 100 q 218 163 218 100 q 274 229 218 213 q 397 208 329 208 q 600 275 517 208 q 664 351 640 306 q 688 463 688 396 q 636 593 688 529 q 760 672 640 672 l 768 829 q 631 781 689 829 q 563 653 571 732 q 383 693 490 693 q 192 628 275 693 q 106 450 106 560 q 188 276 106 346 m 313 -15 l 550 -15 q 601 -31 583 -15 q 618 -72 618 -47 q 556 -172 618 -131 q 484 -206 526 -193 q 367 -218 442 -218 q 237 -190 292 -218 q 182 -114 182 -161 q 313 -15 182 -21 m 525 452 q 494 360 525 396 q 399 324 463 324 q 301 360 335 324 q 268 452 268 396 q 301 544 268 508 q 399 579 335 579 q 494 544 463 579 q 525 480 525 508 q 525 452 525 452 "},"h":{"ha":865,"x_min":129,"x_max":756,"o":"m 293 565 l 293 953 l 129 953 l 129 0 l 293 0 l 293 313 q 342 488 296 429 q 454 546 389 546 q 556 508 519 546 q 592 394 592 469 l 592 0 l 756 0 l 756 394 q 692 611 756 529 q 496 693 629 693 q 293 565 363 693 "},"i":{"ha":456,"x_min":124,"x_max":326,"o":"m 143 676 l 143 0 l 307 0 l 307 676 l 143 676 m 124 893 q 150 823 124 849 q 225 797 176 797 q 299 823 272 797 q 326 893 326 849 q 299 963 326 938 q 225 989 272 989 q 150 963 176 989 q 124 893 124 938 "},"j":{"ha":465,"x_min":-106,"x_max":335,"o":"m 132 893 q 159 823 132 849 q 234 797 186 797 q 308 823 282 797 q 335 893 335 849 q 308 963 335 938 q 234 989 282 989 q 159 963 186 989 q 132 893 132 938 m -103 -164 l -106 -306 q 99 -349 3 -349 q 256 -287 196 -349 q 317 -81 317 -225 l 317 678 l 153 678 l 153 -78 q 126 -177 153 -149 q 40 -206 100 -206 q -103 -164 -19 -206 "},"k":{"ha":799,"x_min":129,"x_max":799,"o":"m 368 329 l 599 0 l 799 0 l 483 425 l 782 675 l 560 675 l 293 438 l 293 953 l 129 953 l 129 0 l 293 0 l 293 267 l 368 329 "},"l":{"ha":422,"x_min":129,"x_max":293,"o":"m 129 953 l 129 0 l 293 0 l 293 953 l 129 953 "},"m":{"ha":1318,"x_min":129,"x_max":1210,"o":"m 729 547 q 645 654 701 615 q 504 693 589 693 q 290 558 357 693 l 272 675 l 129 675 l 129 0 l 293 0 l 293 313 q 342 488 296 429 q 454 546 389 546 q 556 508 519 546 q 592 394 592 469 l 592 0 l 756 0 l 756 317 q 800 489 758 432 q 907 546 842 546 q 1008 508 972 546 q 1044 394 1044 469 l 1044 0 l 1210 0 l 1210 394 q 1146 611 1210 533 q 958 693 1079 693 q 729 547 794 693 "},"n":{"ha":865,"x_min":129,"x_max":756,"o":"m 290 558 l 272 675 l 129 675 l 129 0 l 293 0 l 293 313 q 342 488 296 429 q 454 546 389 546 q 556 508 519 546 q 592 394 592 469 l 592 0 l 756 0 l 756 394 q 692 611 756 529 q 504 693 629 693 q 290 558 357 693 "},"o":{"ha":786,"x_min":65,"x_max":721,"o":"m 394 693 q 161 606 249 693 q 65 336 65 510 q 161 69 65 165 q 394 -19 250 -19 q 625 69 539 -19 q 721 336 721 167 q 625 606 721 508 q 522 672 582 650 q 394 693 463 693 m 557 338 q 510 177 557 231 q 389 124 463 124 q 273 177 315 124 q 231 338 231 231 q 278 498 231 444 q 399 551 325 551 q 515 498 474 551 q 557 391 557 444 q 557 338 557 338 "},"p":{"ha":847,"x_min":129,"x_max":782,"o":"m 279 583 l 264 675 l 129 675 l 129 -329 l 293 -329 l 293 54 q 474 -19 350 -19 q 686 75 597 -19 q 782 338 782 175 q 688 599 782 499 q 474 693 599 693 q 279 583 343 693 m 444 129 q 339 167 382 129 q 293 272 293 207 l 293 393 q 340 506 296 467 q 452 546 383 546 q 569 490 521 546 q 617 337 617 435 q 561 181 617 239 q 505 142 536 154 q 444 129 474 129 "},"q":{"ha":847,"x_min":65,"x_max":810,"o":"m 553 88 l 553 -92 q 601 -260 553 -199 q 763 -349 649 -321 l 810 -229 q 765 -212 783 -221 q 733 -183 747 -203 q 718 -104 718 -164 l 718 675 l 611 675 l 575 571 q 488 663 542 633 q 372 693 435 693 q 158 599 246 693 q 65 338 65 497 q 161 75 65 175 q 381 -19 250 -19 q 553 88 503 -19 m 553 386 l 553 265 q 504 164 550 203 q 404 129 461 129 q 286 181 335 129 q 231 338 231 239 q 278 490 231 435 q 395 546 326 546 q 508 504 464 546 q 553 386 553 463 "},"r":{"ha":578,"x_min":129,"x_max":536,"o":"m 293 542 l 293 676 l 129 676 l 129 0 l 293 0 l 293 296 q 457 522 293 522 q 533 514 494 522 l 536 678 q 476 688 500 688 q 293 542 354 688 "},"s":{"ha":732,"x_min":68,"x_max":664,"o":"m 221 206 l 68 206 q 151 40 69 99 q 368 -19 233 -19 q 585 44 503 -19 q 664 189 664 106 q 622 295 664 254 q 500 363 579 336 l 340 422 q 258 494 258 446 q 288 544 258 522 q 372 565 318 565 q 456 546 426 565 q 488 493 485 526 l 642 493 q 569 636 639 579 q 369 693 499 693 q 162 641 239 693 q 85 503 85 589 q 249 317 85 374 l 396 264 q 461 233 440 250 q 482 186 482 217 q 448 133 482 156 q 361 110 414 110 q 221 206 224 110 "},"t":{"ha":549,"x_min":44,"x_max":510,"o":"m 510 17 l 486 132 q 382 110 422 110 q 303 193 303 110 l 303 565 l 486 565 l 486 675 l 303 675 l 303 853 l 139 853 l 139 675 l 44 675 l 44 565 l 139 565 l 139 188 q 203 31 139 88 q 273 -7 233 6 q 365 -19 313 -19 q 510 17 418 -19 "},"u":{"ha":871,"x_min":115,"x_max":742,"o":"m 578 122 l 578 0 l 742 0 l 742 676 l 578 676 l 578 343 q 524 183 575 243 q 468 144 500 157 q 390 131 436 131 q 311 163 343 131 q 279 263 279 196 l 279 676 l 115 676 l 115 246 q 136 128 115 176 q 372 -12 193 -12 q 578 122 514 -12 "},"v":{"ha":721,"x_min":17,"x_max":704,"o":"m 206 675 l 17 675 l 268 0 l 453 0 l 704 675 l 515 675 l 360 163 l 206 675 "},"w":{"ha":1053,"x_min":17,"x_max":1033,"o":"m 189 675 l 17 675 l 240 0 l 403 0 l 525 404 l 650 0 l 811 0 l 1033 675 l 869 675 l 732 192 l 603 638 l 454 638 l 325 193 l 189 675 "},"x":{"ha":769,"x_min":22,"x_max":746,"o":"m 746 0 l 485 336 l 746 676 l 546 676 l 389 460 l 224 676 l 22 676 l 285 336 l 22 0 l 224 0 l 379 217 l 546 0 l 746 0 "},"y":{"ha":700,"x_min":0,"x_max":683,"o":"m 213 675 l 26 675 l 297 0 l 276 -65 q 226 -167 257 -128 q 146 -206 194 -206 q 0 -160 72 -206 l 0 -304 q 181 -349 90 -349 q 327 -296 269 -349 q 425 -122 385 -243 l 683 675 l 517 675 l 375 189 l 213 675 "},"z":{"ha":688,"x_min":79,"x_max":610,"o":"m 79 133 l 79 0 l 610 0 l 610 133 l 271 133 l 610 542 l 610 675 l 79 675 l 79 542 l 429 542 l 79 133 "},"{":{"ha":543,"x_min":99,"x_max":538,"o":"m 538 -217 l 538 -68 q 388 -19 435 -68 q 342 135 342 31 l 342 268 q 316 378 342 335 q 250 440 290 421 l 250 447 q 316 510 290 467 q 342 619 342 553 l 342 753 q 388 906 342 857 q 538 956 435 956 l 538 1104 q 375 1078 443 1104 q 179 756 179 1004 l 179 628 q 170 548 179 569 q 133 526 161 526 l 99 526 l 99 361 l 133 361 q 170 340 161 361 q 179 260 179 318 l 179 133 q 264 -119 179 -29 q 538 -217 356 -217 "},"|":{"ha":422,"x_min":129,"x_max":293,"o":"m 129 1071 l 129 -169 l 293 -169 l 293 1071 l 129 1071 "},"}":{"ha":543,"x_min":6,"x_max":444,"o":"m 6 -68 l 6 -217 q 168 -192 100 -217 q 364 133 364 -117 l 364 260 q 373 340 364 318 q 410 361 382 361 l 444 361 l 444 526 l 410 526 q 373 548 382 526 q 364 628 364 569 l 364 756 q 281 1006 364 917 q 6 1104 188 1104 l 6 956 q 155 906 108 956 q 201 753 201 857 l 201 619 q 227 510 201 553 q 293 447 253 467 l 293 440 q 227 378 253 421 q 201 268 201 335 l 201 135 q 155 -19 201 31 q 6 -68 108 -68 "},"~":{"ha":792,"x_min":79,"x_max":713,"o":"m 256 368 q 302 360 276 368 q 379 333 328 351 q 521 294 475 294 q 713 471 657 294 l 624 528 q 533 450 590 450 q 381 496 500 450 q 257 525 304 525 q 145 473 188 525 q 79 331 103 421 l 167 283 q 256 368 203 368 "},"£":{"ha":836,"x_min":31,"x_max":786,"o":"m 31 149 l 31 0 l 472 0 q 711 67 633 0 q 786 256 781 128 l 607 256 q 570 174 600 200 q 471 149 540 149 l 282 149 q 332 281 332 190 l 332 390 l 569 390 l 569 500 l 332 500 l 332 617 q 365 733 332 696 q 447 771 399 771 q 522 747 494 771 q 557 676 550 722 l 718 676 q 451 919 685 919 q 246 843 324 919 q 168 617 168 767 l 168 500 l 53 500 l 53 390 l 168 390 l 168 269 q 147 178 168 207 q 75 149 126 149 l 31 149 "},"¨":{"ha":531,"x_min":33,"x_max":497,"o":"m 131 1069 q 201 1095 174 1069 q 229 1160 229 1121 q 201 1226 229 1200 q 131 1253 174 1253 q 60 1226 88 1253 q 33 1160 33 1200 q 60 1095 33 1121 q 131 1069 88 1069 m 301 1161 q 329 1096 301 1121 q 399 1071 357 1071 q 469 1096 442 1071 q 497 1161 497 1121 q 469 1228 497 1201 q 399 1254 442 1254 q 329 1228 357 1254 q 301 1161 301 1201 "},"´":{"ha":494,"x_min":32,"x_max":461,"o":"m 461 1108 l 403 1250 l 32 1067 l 74 964 l 461 1108 "},"À":{"ha":869,"x_min":31,"x_max":839,"o":"m 338 901 l 31 0 l 204 0 l 268 194 l 603 194 l 665 0 l 839 0 l 543 901 l 338 901 m 285 1250 l 226 1108 l 614 964 l 656 1067 l 285 1250 m 310 318 l 438 706 l 563 318 l 310 318 "},"Á":{"ha":869,"x_min":31,"x_max":839,"o":"m 338 901 l 31 0 l 204 0 l 268 194 l 603 194 l 665 0 l 839 0 l 543 901 l 338 901 m 654 1108 l 596 1250 l 225 1067 l 267 964 l 654 1108 m 310 318 l 438 706 l 563 318 l 310 318 "},"Â":{"ha":869,"x_min":31,"x_max":839,"o":"m 338 901 l 31 0 l 204 0 l 268 194 l 603 194 l 665 0 l 839 0 l 543 901 l 338 901 m 728 1044 l 439 1268 l 149 1044 l 253 963 l 439 1103 l 624 963 l 728 1044 m 310 318 l 438 706 l 563 318 l 310 318 "},"Ã":{"ha":869,"x_min":31,"x_max":839,"o":"m 338 901 l 31 0 l 204 0 l 268 194 l 603 194 l 665 0 l 839 0 l 543 901 l 338 901 m 536 1164 q 502 1172 519 1164 q 435 1206 485 1181 q 347 1232 385 1232 q 255 1185 294 1232 q 199 1054 215 1139 l 264 1015 q 346 1085 297 1085 q 431 1053 368 1085 q 491 1025 467 1035 q 540 1015 515 1015 q 624 1063 585 1015 q 679 1186 664 1111 l 610 1232 q 536 1164 581 1164 m 310 318 l 438 706 l 563 318 l 310 318 "},"Ä":{"ha":869,"x_min":31,"x_max":839,"o":"m 338 901 l 31 0 l 204 0 l 268 194 l 603 194 l 665 0 l 839 0 l 543 901 l 338 901 m 310 318 l 438 706 l 563 318 l 310 318 m 304 1040 q 375 1066 347 1040 q 403 1131 403 1092 q 375 1197 403 1171 q 304 1224 347 1224 q 234 1197 261 1224 q 207 1131 207 1171 q 234 1066 207 1092 q 304 1040 261 1040 m 475 1132 q 503 1067 475 1092 q 573 1042 531 1042 q 643 1067 615 1042 q 671 1132 671 1092 q 643 1199 671 1172 q 573 1225 615 1225 q 503 1199 531 1225 q 475 1132 475 1172 "},"È":{"ha":817,"x_min":128,"x_max":708,"o":"m 128 901 l 128 0 l 708 0 l 708 143 l 292 143 l 292 381 l 682 381 l 682 522 l 292 522 l 292 760 l 708 760 l 708 901 l 128 901 m 264 1250 l 206 1108 l 593 964 l 635 1067 l 264 1250 "},"É":{"ha":817,"x_min":128,"x_max":708,"o":"m 128 0 l 128 901 l 708 901 l 708 760 l 292 760 l 292 522 l 682 522 l 682 381 l 292 381 l 292 143 l 708 143 l 708 0 l 128 0 m 633 1108 l 575 1250 l 204 1067 l 246 964 l 633 1108 "},"Ê":{"ha":817,"x_min":142,"x_max":722,"o":"m 142 901 l 142 0 l 722 0 l 722 143 l 306 143 l 306 381 l 696 381 l 696 522 l 306 522 l 306 760 l 722 760 l 722 901 l 142 901 m 722 1044 l 433 1268 l 143 1044 l 247 963 l 433 1103 l 618 963 l 722 1044 "},"Ë":{"ha":817,"x_min":128,"x_max":708,"o":"m 128 901 l 128 0 l 708 0 l 708 143 l 292 143 l 292 381 l 682 381 l 682 522 l 292 522 l 292 760 l 708 760 l 708 901 l 128 901 m 285 1040 q 356 1066 328 1040 q 383 1131 383 1092 q 356 1197 383 1171 q 285 1224 328 1224 q 215 1197 242 1224 q 188 1131 188 1171 q 215 1066 188 1092 q 285 1040 242 1040 m 456 1132 q 483 1067 456 1092 q 553 1042 511 1042 q 624 1067 596 1042 q 651 1132 651 1092 q 624 1199 651 1172 q 553 1225 596 1225 q 483 1199 511 1225 q 456 1132 456 1172 "},"Ì":{"ha":422,"x_min":-1,"x_max":428,"o":"m 129 901 l 129 0 l 293 0 l 293 901 l 129 901 m 57 1250 l -1 1108 l 386 964 l 428 1067 l 57 1250 "},"Í":{"ha":422,"x_min":-3,"x_max":426,"o":"m 129 0 l 129 901 l 293 901 l 293 0 l 129 0 m 426 1108 l 368 1250 l -3 1067 l 39 964 l 426 1108 "},"Î":{"ha":422,"x_min":-78,"x_max":501,"o":"m 129 901 l 129 0 l 293 0 l 293 901 l 129 901 m 501 1044 l 213 1268 l -78 1044 l 26 963 l 213 1103 l 397 963 l 501 1044 "},"Ï":{"ha":422,"x_min":-19,"x_max":444,"o":"m 129 901 l 129 0 l 293 0 l 293 901 l 129 901 m 78 1040 q 149 1066 121 1040 q 176 1131 176 1092 q 149 1197 176 1171 q 78 1224 121 1224 q 8 1197 35 1224 q -19 1131 -19 1171 q 8 1066 -19 1092 q 78 1040 35 1040 m 249 1132 q 276 1067 249 1092 q 347 1042 304 1042 q 417 1067 389 1042 q 444 1132 444 1092 q 417 1199 444 1172 q 347 1225 389 1225 q 276 1199 304 1225 q 249 1132 249 1172 "},"Ñ":{"ha":1000,"x_min":126,"x_max":867,"o":"m 126 901 l 306 901 l 703 263 l 703 901 l 867 901 l 867 0 l 700 0 l 290 661 l 290 0 l 126 0 l 126 901 m 596 1164 q 562 1172 579 1164 q 494 1206 544 1181 q 407 1232 444 1232 q 315 1185 354 1232 q 258 1054 275 1139 l 324 1015 q 406 1085 357 1085 q 489 1053 428 1085 q 551 1025 526 1035 q 600 1015 575 1015 q 684 1063 644 1015 q 739 1186 724 1111 l 669 1232 q 596 1164 640 1164 "},"Ò":{"ha":949,"x_min":65,"x_max":883,"o":"m 475 919 q 179 804 286 919 q 65 451 65 682 q 179 100 65 224 q 474 -19 288 -19 q 769 97 661 -19 q 883 451 883 222 q 769 801 883 679 q 640 890 715 860 q 475 919 565 919 m 714 449 q 649 212 714 294 q 475 129 585 129 q 300 212 365 129 q 235 449 235 294 q 300 688 235 604 q 475 772 365 772 q 649 688 585 772 q 714 527 714 604 q 714 449 714 449 m 317 1250 l 258 1108 l 646 964 l 688 1067 l 317 1250 "},"Ó":{"ha":949,"x_min":65,"x_max":883,"o":"m 475 919 q 769 801 660 919 q 883 451 883 679 q 769 97 883 222 q 474 -19 661 -19 q 179 100 288 -19 q 65 451 65 224 q 179 804 65 682 q 308 891 233 863 q 475 919 383 919 m 235 449 q 300 212 235 294 q 475 129 365 129 q 649 212 585 129 q 714 449 714 294 q 649 688 714 604 q 475 772 585 772 q 300 688 365 772 q 235 527 235 604 q 235 449 235 449 m 686 1108 l 628 1250 l 257 1067 l 299 964 l 686 1108 "},"Ô":{"ha":949,"x_min":65,"x_max":883,"o":"m 475 919 q 179 804 286 919 q 65 451 65 682 q 179 100 65 224 q 474 -19 288 -19 q 769 97 661 -19 q 883 451 883 222 q 769 801 883 679 q 640 890 715 860 q 475 919 565 919 m 714 449 q 649 212 714 294 q 475 129 585 129 q 300 212 365 129 q 235 449 235 294 q 300 688 235 604 q 475 772 365 772 q 649 688 585 772 q 714 527 714 604 q 714 449 714 449 m 763 1044 l 474 1268 l 183 1044 l 288 963 l 474 1103 l 658 963 l 763 1044 "},"Õ":{"ha":949,"x_min":65,"x_max":883,"o":"m 475 919 q 769 801 660 919 q 883 451 883 679 q 769 97 883 222 q 474 -19 661 -19 q 179 100 288 -19 q 65 451 65 224 q 179 804 65 682 q 308 891 233 863 q 475 919 383 919 m 235 449 q 300 212 235 294 q 475 129 365 129 q 649 212 585 129 q 714 449 714 294 q 649 688 714 604 q 475 772 585 772 q 300 688 365 772 q 235 527 235 604 q 235 449 235 449 m 571 1164 q 537 1172 554 1164 q 469 1206 519 1181 q 382 1232 419 1232 q 290 1185 329 1232 q 233 1054 250 1139 l 299 1015 q 381 1085 332 1085 q 464 1053 403 1085 q 526 1025 501 1035 q 575 1015 550 1015 q 659 1063 619 1015 q 714 1186 699 1111 l 644 1232 q 571 1164 615 1164 "},"Ö":{"ha":949,"x_min":65,"x_max":883,"o":"m 475 919 q 179 804 286 919 q 65 451 65 682 q 179 100 65 224 q 474 -19 288 -19 q 769 97 661 -19 q 883 451 883 222 q 769 801 883 679 q 640 890 715 860 q 475 919 565 919 m 714 449 q 649 212 714 294 q 475 129 585 129 q 300 212 365 129 q 235 449 235 294 q 300 688 235 604 q 475 772 365 772 q 649 688 585 772 q 714 527 714 604 q 714 449 714 449 m 339 1040 q 410 1066 382 1040 q 438 1131 438 1092 q 410 1197 438 1171 q 339 1224 382 1224 q 269 1197 296 1224 q 242 1131 242 1171 q 269 1066 242 1092 q 339 1040 296 1040 m 510 1132 q 538 1067 510 1092 q 608 1042 565 1042 q 678 1067 650 1042 q 706 1132 706 1092 q 678 1199 706 1172 q 608 1225 650 1225 q 538 1199 565 1225 q 510 1132 510 1172 "},"Ù":{"ha":958,"x_min":115,"x_max":846,"o":"m 279 901 l 115 901 l 115 340 q 211 74 115 168 q 481 -19 307 -19 q 750 74 654 -19 q 846 340 846 168 l 846 901 l 682 901 l 682 340 q 626 181 682 229 q 481 132 569 132 q 335 181 392 132 q 279 340 279 229 l 279 901 m 324 1250 l 265 1108 l 653 964 l 694 1067 l 324 1250 "},"Ú":{"ha":958,"x_min":115,"x_max":846,"o":"m 115 901 l 279 901 l 279 340 q 335 181 279 229 q 481 132 392 132 q 626 181 569 132 q 682 340 682 229 l 682 901 l 846 901 l 846 340 q 750 74 846 168 q 481 -19 654 -19 q 211 74 307 -19 q 115 340 115 168 l 115 901 m 693 1108 l 635 1250 l 264 1067 l 306 964 l 693 1108 "},"Û":{"ha":958,"x_min":115,"x_max":846,"o":"m 279 901 l 115 901 l 115 340 q 211 74 115 168 q 481 -19 307 -19 q 750 74 654 -19 q 846 340 846 168 l 846 901 l 682 901 l 682 340 q 626 181 682 229 q 481 132 569 132 q 335 181 392 132 q 279 340 279 229 l 279 901 m 769 1044 l 481 1268 l 190 1044 l 294 963 l 481 1103 l 665 963 l 769 1044 "},"Ü":{"ha":958,"x_min":115,"x_max":846,"o":"m 279 901 l 115 901 l 115 340 q 211 74 115 168 q 481 -19 307 -19 q 750 74 654 -19 q 846 340 846 168 l 846 901 l 682 901 l 682 340 q 626 181 682 229 q 481 132 569 132 q 335 181 392 132 q 279 340 279 229 l 279 901 m 347 1040 q 418 1066 390 1040 q 446 1131 446 1092 q 418 1197 446 1171 q 347 1224 390 1224 q 277 1197 304 1224 q 250 1131 250 1171 q 277 1066 250 1092 q 347 1040 304 1040 m 518 1132 q 546 1067 518 1092 q 616 1042 574 1042 q 686 1067 658 1042 q 714 1132 714 1092 q 686 1199 714 1172 q 616 1225 658 1225 q 546 1199 574 1225 q 518 1132 518 1172 "},"à":{"ha":813,"x_min":76,"x_max":701,"o":"m 351 394 q 150 344 224 394 q 76 199 76 293 q 143 44 76 106 q 346 -19 215 -19 q 546 90 481 -19 l 558 0 l 701 0 l 701 429 q 681 547 701 497 q 411 693 619 693 q 184 642 265 693 q 103 475 103 590 l 282 475 q 317 548 282 522 q 416 574 351 574 q 509 540 481 574 q 538 435 538 506 l 538 368 q 351 394 432 394 m 257 1061 l 199 919 l 586 775 l 628 878 l 257 1061 m 538 264 q 491 151 535 196 q 380 106 447 106 q 282 133 313 106 q 251 197 251 160 q 385 286 251 286 q 538 264 456 286 "},"á":{"ha":813,"x_min":76,"x_max":701,"o":"m 351 394 q 150 344 224 394 q 76 199 76 293 q 143 44 76 106 q 346 -19 215 -19 q 546 90 481 -19 l 558 0 l 701 0 l 701 429 q 681 547 701 497 q 411 693 619 693 q 184 642 265 693 q 103 475 103 590 l 282 475 q 317 548 282 522 q 416 574 351 574 q 509 540 481 574 q 538 435 538 506 l 538 368 q 351 394 432 394 m 626 919 l 568 1061 l 197 878 l 239 775 l 626 919 m 538 264 q 491 151 535 196 q 380 106 447 106 q 282 133 313 106 q 251 197 251 160 q 385 286 251 286 q 538 264 456 286 "},"â":{"ha":813,"x_min":76,"x_max":703,"o":"m 351 394 q 150 344 224 394 q 76 199 76 293 q 143 44 76 106 q 346 -19 215 -19 q 546 90 481 -19 l 558 0 l 701 0 l 701 429 q 681 547 701 497 q 411 693 619 693 q 184 642 265 693 q 103 475 103 590 l 282 475 q 317 548 282 522 q 416 574 351 574 q 509 540 481 574 q 538 435 538 506 l 538 368 q 351 394 432 394 m 703 856 l 414 1079 l 124 856 l 228 774 l 414 914 l 599 774 l 703 856 m 538 264 q 491 151 535 196 q 380 106 447 106 q 282 133 313 106 q 251 197 251 160 q 385 286 251 286 q 538 264 456 286 "},"ã":{"ha":813,"x_min":76,"x_max":701,"o":"m 351 394 q 150 344 224 394 q 76 199 76 293 q 143 44 76 106 q 346 -19 215 -19 q 546 90 481 -19 l 558 0 l 701 0 l 701 429 q 681 547 701 497 q 411 693 619 693 q 184 642 265 693 q 103 475 103 590 l 282 475 q 317 548 282 522 q 416 574 351 574 q 509 540 481 574 q 538 435 538 506 l 538 368 q 351 394 432 394 m 511 975 q 477 983 494 975 q 410 1017 460 992 q 322 1043 360 1043 q 230 997 269 1043 q 174 865 190 950 l 239 826 q 321 896 272 896 q 406 864 343 896 q 466 836 442 846 q 515 826 490 826 q 599 874 560 826 q 654 997 639 922 l 585 1043 q 511 975 556 975 m 538 264 q 491 151 535 196 q 380 106 447 106 q 282 133 313 106 q 251 197 251 160 q 385 286 251 286 q 538 264 456 286 "},"ä":{"ha":813,"x_min":76,"x_max":701,"o":"m 351 394 q 150 344 224 394 q 76 199 76 293 q 143 44 76 106 q 346 -19 215 -19 q 546 90 481 -19 l 558 0 l 701 0 l 701 429 q 681 547 701 497 q 411 693 619 693 q 184 642 265 693 q 103 475 103 590 l 282 475 q 317 548 282 522 q 416 574 351 574 q 509 540 481 574 q 538 435 538 506 l 538 368 q 351 394 432 394 m 538 264 q 491 151 535 196 q 380 106 447 106 q 282 133 313 106 q 251 197 251 160 q 385 286 251 286 q 538 264 456 286 m 279 851 q 350 877 322 851 q 378 942 378 903 q 350 1008 378 982 q 279 1035 322 1035 q 209 1008 236 1035 q 182 942 182 982 q 209 877 182 903 q 279 851 236 851 m 450 943 q 478 878 450 903 q 548 853 506 853 q 618 878 590 853 q 646 943 646 903 q 618 1010 646 983 q 548 1036 590 1036 q 478 1010 506 1036 q 450 943 450 983 "},"è":{"ha":736,"x_min":65,"x_max":669,"o":"m 600 594 q 382 693 522 693 q 158 599 247 693 q 65 338 65 500 q 158 78 65 179 q 382 -19 249 -19 q 575 42 496 -19 q 668 201 651 100 l 503 201 q 382 113 483 113 q 268 164 306 113 q 228 297 231 215 l 664 297 q 669 385 669 336 q 652 492 669 433 q 600 594 635 550 m 214 1075 l 156 933 l 543 789 l 585 892 l 214 1075 m 383 563 q 447 549 421 563 q 517 401 517 511 l 229 401 q 275 517 236 472 q 383 563 314 563 "},"é":{"ha":736,"x_min":65,"x_max":669,"o":"m 503 201 l 668 201 q 575 42 651 100 q 382 -19 496 -19 q 158 78 249 -19 q 65 338 65 179 q 158 599 65 500 q 382 693 247 693 q 600 594 522 693 q 652 492 635 550 q 669 385 669 433 q 664 297 669 336 l 228 297 q 268 164 231 215 q 382 113 306 113 q 503 201 483 113 m 583 933 l 525 1075 l 154 892 l 196 789 l 583 933 m 517 401 q 485 517 517 472 q 383 563 453 563 q 275 517 314 563 q 229 401 236 472 l 517 401 "},"ê":{"ha":736,"x_min":75,"x_max":679,"o":"m 608 594 q 392 693 532 693 q 168 599 257 693 q 75 338 75 500 q 168 78 75 179 q 392 -19 258 -19 q 585 42 506 -19 q 678 201 661 100 l 513 201 q 392 113 493 113 q 278 164 315 113 q 238 297 240 215 l 674 297 q 679 385 679 336 q 662 492 679 433 q 608 594 644 550 m 667 869 l 378 1093 l 88 869 l 192 788 l 378 928 l 563 788 l 667 869 m 393 563 q 456 549 431 563 q 526 401 526 511 l 239 401 q 285 517 246 472 q 393 563 324 563 "},"ë":{"ha":736,"x_min":65,"x_max":669,"o":"m 600 594 q 382 693 522 693 q 158 599 247 693 q 65 338 65 500 q 158 78 65 179 q 382 -19 249 -19 q 575 42 496 -19 q 668 201 651 100 l 503 201 q 382 113 483 113 q 268 164 306 113 q 228 297 231 215 l 664 297 q 669 385 669 336 q 652 492 669 433 q 600 594 635 550 m 383 563 q 447 549 421 563 q 517 401 517 511 l 229 401 q 275 517 236 472 q 383 563 314 563 m 235 851 q 306 877 278 851 q 333 942 333 903 q 306 1008 333 982 q 235 1035 278 1035 q 165 1008 192 1035 q 138 942 138 982 q 165 877 138 903 q 235 851 192 851 m 406 943 q 433 878 406 903 q 503 853 461 853 q 574 878 546 853 q 601 943 601 903 q 574 1010 601 983 q 503 1036 546 1036 q 433 1010 461 1036 q 406 943 406 983 "},"ì":{"ha":456,"x_min":11,"x_max":440,"o":"m 143 676 l 143 0 l 307 0 l 307 676 l 143 676 m 69 1061 l 11 919 l 399 775 l 440 878 l 69 1061 "},"í":{"ha":456,"x_min":10,"x_max":439,"o":"m 143 0 l 143 676 l 307 676 l 307 0 l 143 0 m 439 919 l 381 1061 l 10 878 l 51 775 l 439 919 "},"î":{"ha":456,"x_min":-65,"x_max":514,"o":"m 143 676 l 143 0 l 307 0 l 307 676 l 143 676 m 514 856 l 225 1079 l -65 856 l 39 774 l 225 914 l 410 774 l 514 856 "},"ï":{"ha":456,"x_min":-7,"x_max":457,"o":"m 143 676 l 143 0 l 307 0 l 307 676 l 143 676 m 90 851 q 161 877 133 851 q 189 942 189 903 q 161 1008 189 982 q 90 1035 133 1035 q 20 1008 47 1035 q -7 942 -7 982 q 20 877 -7 903 q 90 851 47 851 m 261 943 q 289 878 261 903 q 359 853 317 853 q 429 878 401 853 q 457 943 457 903 q 429 1010 457 983 q 359 1036 401 1036 q 289 1010 317 1036 q 261 943 261 983 "},"ñ":{"ha":865,"x_min":129,"x_max":756,"o":"m 504 693 q 692 611 629 693 q 756 394 756 529 l 756 0 l 592 0 l 592 394 q 556 508 592 469 q 454 546 519 546 q 342 488 389 546 q 293 313 296 429 l 293 0 l 129 0 l 129 675 l 272 675 l 290 558 q 504 693 357 693 m 533 975 q 499 983 517 975 q 432 1017 482 992 q 344 1043 382 1043 q 252 997 292 1043 q 196 865 213 950 l 261 826 q 343 896 294 896 q 428 864 365 896 q 488 836 464 846 q 538 826 513 826 q 622 874 582 826 q 676 997 661 922 l 607 1043 q 533 975 578 975 "},"ò":{"ha":786,"x_min":65,"x_max":721,"o":"m 394 693 q 161 606 249 693 q 65 336 65 510 q 161 69 65 165 q 394 -19 250 -19 q 625 69 539 -19 q 721 336 721 167 q 625 606 721 508 q 522 672 582 650 q 394 693 463 693 m 557 338 q 510 177 557 231 q 389 124 463 124 q 273 177 315 124 q 231 338 231 231 q 278 498 231 444 q 399 551 325 551 q 515 498 474 551 q 557 391 557 444 q 557 338 557 338 m 239 1061 l 181 919 l 568 775 l 610 878 l 239 1061 "},"ó":{"ha":786,"x_min":65,"x_max":721,"o":"m 394 693 q 625 606 539 693 q 721 336 721 508 q 625 69 721 167 q 394 -19 539 -19 q 161 69 250 -19 q 65 336 65 165 q 161 606 65 510 q 265 672 206 650 q 394 693 325 693 m 231 338 q 273 177 231 231 q 389 124 315 124 q 510 177 463 124 q 557 338 557 231 q 515 498 557 444 q 399 551 474 551 q 278 498 325 551 q 231 391 231 444 q 231 338 231 338 m 608 919 l 550 1061 l 179 878 l 221 775 l 608 919 "},"ô":{"ha":786,"x_min":65,"x_max":721,"o":"m 394 693 q 161 606 249 693 q 65 336 65 510 q 161 69 65 165 q 394 -19 250 -19 q 625 69 539 -19 q 721 336 721 167 q 625 606 721 508 q 522 672 582 650 q 394 693 463 693 m 557 338 q 510 177 557 231 q 389 124 463 124 q 273 177 315 124 q 231 338 231 231 q 278 498 231 444 q 399 551 325 551 q 515 498 474 551 q 557 391 557 444 q 557 338 557 338 m 683 856 l 394 1079 l 104 856 l 208 774 l 394 914 l 579 774 l 683 856 "},"õ":{"ha":786,"x_min":65,"x_max":721,"o":"m 394 693 q 625 606 539 693 q 721 336 721 508 q 625 69 721 167 q 394 -19 539 -19 q 161 69 250 -19 q 65 336 65 165 q 161 606 65 510 q 265 672 206 650 q 394 693 325 693 m 231 338 q 273 177 231 231 q 389 124 315 124 q 510 177 463 124 q 557 338 557 231 q 515 498 557 444 q 399 551 474 551 q 278 498 325 551 q 231 391 231 444 q 231 338 231 338 m 490 975 q 456 983 474 975 q 389 1017 439 992 q 301 1043 339 1043 q 209 997 249 1043 q 153 865 169 950 l 218 826 q 300 896 251 896 q 383 864 322 896 q 445 836 421 846 q 494 826 469 826 q 578 874 539 826 q 633 997 618 922 l 564 1043 q 490 975 535 975 "},"ö":{"ha":786,"x_min":65,"x_max":721,"o":"m 394 693 q 161 606 249 693 q 65 336 65 510 q 161 69 65 165 q 394 -19 250 -19 q 625 69 539 -19 q 721 336 721 167 q 625 606 721 508 q 522 672 582 650 q 394 693 463 693 m 557 338 q 510 177 557 231 q 389 124 463 124 q 273 177 315 124 q 231 338 231 231 q 278 498 231 444 q 399 551 325 551 q 515 498 474 551 q 557 391 557 444 q 557 338 557 338 m 260 851 q 331 877 303 851 q 358 942 358 903 q 331 1008 358 982 q 260 1035 303 1035 q 190 1008 217 1035 q 163 942 163 982 q 190 877 163 903 q 260 851 217 851 m 431 943 q 458 878 431 903 q 528 853 486 853 q 599 878 571 853 q 626 943 626 903 q 599 1010 626 983 q 528 1036 571 1036 q 458 1010 486 1036 q 431 943 431 983 "},"ù":{"ha":871,"x_min":115,"x_max":742,"o":"m 578 122 l 578 0 l 742 0 l 742 676 l 578 676 l 578 343 q 524 183 575 243 q 468 144 500 157 q 390 131 436 131 q 311 163 343 131 q 279 263 279 196 l 279 676 l 115 676 l 115 246 q 136 128 115 176 q 372 -12 193 -12 q 578 122 514 -12 m 279 1089 l 221 947 l 608 803 l 650 906 l 279 1089 "},"ú":{"ha":871,"x_min":115,"x_max":742,"o":"m 372 -12 q 189 47 254 -12 q 115 246 115 115 l 115 676 l 279 676 l 279 263 q 311 163 279 196 q 410 131 343 131 q 525 186 478 131 q 578 354 578 247 l 578 676 l 742 676 l 742 0 l 578 0 l 578 122 q 372 -12 514 -12 m 649 947 l 590 1089 l 219 906 l 261 803 l 649 947 "},"û":{"ha":871,"x_min":115,"x_max":742,"o":"m 578 122 l 578 0 l 742 0 l 742 676 l 578 676 l 578 343 q 524 183 575 243 q 468 144 500 157 q 390 131 436 131 q 311 163 343 131 q 279 263 279 196 l 279 676 l 115 676 l 115 246 q 136 128 115 176 q 372 -12 193 -12 q 578 122 514 -12 m 724 883 l 435 1107 l 144 883 l 249 801 l 435 942 l 619 801 l 724 883 "},"ü":{"ha":871,"x_min":115,"x_max":742,"o":"m 578 122 l 578 0 l 742 0 l 742 676 l 578 676 l 578 343 q 524 183 575 243 q 468 144 500 157 q 390 131 436 131 q 311 163 343 131 q 279 263 279 196 l 279 676 l 115 676 l 115 246 q 136 128 115 176 q 372 -12 193 -12 q 578 122 514 -12 m 300 851 q 371 877 343 851 q 399 942 399 903 q 371 1008 399 982 q 300 1035 343 1035 q 230 1008 257 1035 q 203 942 203 982 q 230 877 203 903 q 300 851 257 851 m 471 943 q 499 878 471 903 q 569 853 526 853 q 639 878 611 853 q 667 943 667 903 q 639 1010 667 983 q 569 1036 611 1036 q 499 1010 526 1036 q 471 943 471 983 "},"ı":{"ha":422,"x_min":129,"x_max":293,"o":"m 129 676 l 129 0 l 293 0 l 293 676 l 129 676 "},"ʼ":{"ha":329,"x_min":50,"x_max":329,"o":"m 178 715 q 131 647 167 676 q 50 594 96 618 l 172 533 q 238 578 208 551 q 329 763 329 661 q 294 868 329 825 q 204 911 260 911 q 117 882 149 911 q 85 812 85 853 q 112 747 85 771 q 178 715 139 722 "},"ˆ":{"ha":646,"x_min":33,"x_max":613,"o":"m 613 1044 l 324 1268 l 33 1044 l 138 963 l 324 1103 l 508 963 l 613 1044 "},"˜":{"ha":547,"x_min":32,"x_max":513,"o":"m 369 1164 q 335 1172 353 1164 q 268 1206 318 1181 q 181 1232 218 1232 q 88 1185 128 1232 q 32 1054 49 1139 l 97 1015 q 179 1085 131 1085 q 264 1053 201 1085 q 324 1025 300 1035 q 374 1015 349 1015 q 458 1063 418 1015 q 513 1186 497 1111 l 443 1232 q 369 1164 414 1164 "},"–":{"ha":729,"x_min":76,"x_max":653,"o":"m 76 490 l 76 347 l 653 347 l 653 490 l 76 490 "},"—":{"ha":1067,"x_min":76,"x_max":992,"o":"m 76 490 l 76 347 l 992 347 l 992 490 l 76 490 "},"‘":{"ha":376,"x_min":50,"x_max":331,"o":"m 294 626 q 267 690 294 667 q 201 721 240 714 q 331 842 224 792 l 215 906 q 95 806 140 868 q 50 678 50 743 q 85 570 50 614 q 176 526 121 526 q 263 556 232 526 q 294 605 294 585 q 294 626 294 626 "},"’":{"ha":376,"x_min":40,"x_max":319,"o":"m 75 807 q 102 742 75 765 q 169 711 129 718 q 40 589 147 643 l 154 526 q 274 626 229 564 q 319 753 319 689 q 284 862 319 818 q 194 906 249 906 q 107 877 139 906 q 75 828 75 849 q 75 807 75 807 "},"₨":{"ha":839,"x_min":115,"x_max":760,"o":"m 115 901 l 115 810 l 211 810 q 364 774 310 810 q 433 679 418 738 l 115 679 l 115 586 l 439 586 q 376 479 428 521 q 222 435 324 438 l 115 435 l 115 342 l 469 0 l 700 0 l 338 350 q 540 434 475 371 q 615 586 606 497 l 760 586 l 760 679 l 611 679 q 507 810 590 760 l 760 810 l 760 901 l 115 901 "},"−":{"ha":703,"x_min":110,"x_max":593,"o":"m 593 490 l 110 490 l 110 347 l 593 347 l 593 490 "}}}
